<svg width="18" height="15" viewBox="0 0 18 15" fill="none" xmlns="http://www.w3.org/2000/svg">
<path d="M0.381348 7.30176C0.381348 7.06982 0.483398 6.85645 0.668945 6.68018L6.81055 0.547852C7.01465 0.34375 7.20947 0.269531 7.43213 0.269531C7.88672 0.269531 8.24854 0.603516 8.24854 1.06738C8.24854 1.29004 8.16504 1.50342 8.0166 1.65186L5.93848 3.76709L2.82129 6.61523L5.05713 6.47607H16.793C17.2754 6.47607 17.6094 6.81934 17.6094 7.30176C17.6094 7.78418 17.2754 8.12744 16.793 8.12744H5.05713L2.81201 7.98828L5.93848 10.8364L8.0166 12.9517C8.16504 13.0908 8.24854 13.3135 8.24854 13.5361C8.24854 14 7.88672 14.334 7.43213 14.334C7.20947 14.334 7.01465 14.2505 6.8291 14.0742L0.668945 7.92334C0.483398 7.74707 0.381348 7.53369 0.381348 7.30176Z" fill="black"/>
</svg>
