<svg width="24" height="24" viewBox="0 0 24 24" fill="none" xmlns="http://www.w3.org/2000/svg">
<path fill-rule="evenodd" clip-rule="evenodd" d="M4.99658 21.0508C2.85352 21.0508 1.77686 19.9946 1.77686 17.8721V5.35205C1.77686 3.22949 2.85352 2.17334 4.99658 2.17334H19.0034C21.1465 2.17334 22.2129 3.23975 22.2129 5.35205V17.8721C22.2129 19.9844 21.1465 21.0508 19.0034 21.0508H4.99658ZM3.5 5C3.5 4.44771 3.94772 4 4.5 4H19.5C20.0523 4 20.5 4.44772 20.5 5V5.8C20.5 6.35229 20.0523 6.8 19.5 6.8H4.5C3.94772 6.8 3.5 6.35228 3.5 5.8V5ZM10.0005 10.5405C9.6416 10.5405 9.51855 10.438 9.51855 10.0791V9.47412C9.51855 9.11523 9.6416 9.00244 10.0005 9.00244H10.6055C10.9644 9.00244 11.0771 9.11523 11.0771 9.47412V10.0791C11.0771 10.438 10.9644 10.5405 10.6055 10.5405H10.0005ZM13.4048 10.5405C13.0459 10.5405 12.9229 10.438 12.9229 10.0791V9.47412C12.9229 9.11523 13.0459 9.00244 13.4048 9.00244H14.0098C14.3687 9.00244 14.4917 9.11523 14.4917 9.47412V10.0791C14.4917 10.438 14.3687 10.5405 14.0098 10.5405H13.4048ZM16.3374 10.0791C16.3374 10.438 16.4502 10.5405 16.8091 10.5405H17.4141C17.7729 10.5405 17.896 10.438 17.896 10.0791V9.47412C17.896 9.11523 17.7729 9.00244 17.4141 9.00244H16.8091C16.4502 9.00244 16.3374 9.11523 16.3374 9.47412V10.0791ZM6.59619 13.8936C6.22705 13.8936 6.11426 13.791 6.11426 13.4321V12.8271C6.11426 12.4683 6.22705 12.3657 6.59619 12.3657H7.19092C7.56006 12.3657 7.67285 12.4683 7.67285 12.8271V13.4321C7.67285 13.791 7.56006 13.8936 7.19092 13.8936H6.59619ZM9.51855 13.4321C9.51855 13.791 9.6416 13.8936 10.0005 13.8936H10.6055C10.9644 13.8936 11.0771 13.791 11.0771 13.4321V12.8271C11.0771 12.4683 10.9644 12.3657 10.6055 12.3657H10.0005C9.6416 12.3657 9.51855 12.4683 9.51855 12.8271V13.4321ZM13.4048 13.8936C13.0459 13.8936 12.9229 13.791 12.9229 13.4321V12.8271C12.9229 12.4683 13.0459 12.3657 13.4048 12.3657H14.0098C14.3687 12.3657 14.4917 12.4683 14.4917 12.8271V13.4321C14.4917 13.791 14.3687 13.8936 14.0098 13.8936H13.4048ZM16.3374 13.4321C16.3374 13.791 16.4502 13.8936 16.8091 13.8936H17.4141C17.7729 13.8936 17.896 13.791 17.896 13.4321V12.8271C17.896 12.4683 17.7729 12.3657 17.4141 12.3657H16.8091C16.4502 12.3657 16.3374 12.4683 16.3374 12.8271V13.4321ZM6.59619 17.2568C6.22705 17.2568 6.11426 17.144 6.11426 16.7852V16.1802C6.11426 15.8213 6.22705 15.7188 6.59619 15.7188H7.19092C7.56006 15.7188 7.67285 15.8213 7.67285 16.1802V16.7852C7.67285 17.144 7.56006 17.2568 7.19092 17.2568H6.59619ZM9.51855 16.7852C9.51855 17.144 9.6416 17.2568 10.0005 17.2568H10.6055C10.9644 17.2568 11.0771 17.144 11.0771 16.7852V16.1802C11.0771 15.8213 10.9644 15.7188 10.6055 15.7188H10.0005C9.6416 15.7188 9.51855 15.8213 9.51855 16.1802V16.7852ZM13.4048 17.2568C13.0459 17.2568 12.9229 17.144 12.9229 16.7852V16.1802C12.9229 15.8213 13.0459 15.7188 13.4048 15.7188H14.0098C14.3687 15.7188 14.4917 15.8213 14.4917 16.1802V16.7852C14.4917 17.144 14.3687 17.2568 14.0098 17.2568H13.4048Z" fill="#000"/>
</svg>
