<svg width="21" height="21" viewBox="0 0 21 21" fill="none" xmlns="http://www.w3.org/2000/svg">
<path d="M9.19775 20.1899C8.68506 20.1899 8.31592 19.8926 8.20312 19.3901L7.70068 17.2778C7.3418 17.1548 6.99316 17.0112 6.67529 16.8677L4.82959 18.0059C4.39893 18.2725 3.92725 18.2314 3.56836 17.8828L2.30713 16.6113C1.94824 16.2627 1.89697 15.7705 2.18408 15.3398L3.31201 13.5044C3.16846 13.1763 3.03516 12.8379 2.92236 12.4995L0.799805 11.9971C0.287109 11.8945 0 11.5254 0 11.0127V9.22852C0 8.72607 0.287109 8.35693 0.799805 8.24414L2.90186 7.73145C3.03516 7.3623 3.17871 7.02393 3.30176 6.72656L2.17383 4.87061C1.88672 4.43994 1.91748 3.96826 2.28662 3.59912L3.56836 2.33789C3.92725 1.98926 4.36816 1.94824 4.80908 2.19434L6.66504 3.34277C6.98291 3.18896 7.3418 3.05566 7.70068 2.92236L8.20312 0.810059C8.31592 0.297363 8.68506 0 9.19775 0H11.0024C11.5151 0 11.8843 0.297363 11.9971 0.810059L12.4893 2.94287C12.8687 3.06592 13.207 3.20947 13.5146 3.35303L15.3809 2.19434C15.8218 1.94824 16.2627 1.99951 16.6216 2.33789L17.9033 3.59912C18.2725 3.96826 18.3032 4.43994 18.0264 4.87061L16.8882 6.72656C17.0112 7.02393 17.165 7.3623 17.2881 7.73145L19.3901 8.24414C19.9028 8.35693 20.1899 8.72607 20.1899 9.22852V11.0127C20.1899 11.5254 19.9028 11.8945 19.3901 11.9971L17.2676 12.4995C17.165 12.8379 17.0215 13.1763 16.8779 13.5044L18.0059 15.3398C18.293 15.7705 18.2417 16.2627 17.8828 16.6113L16.6216 17.8828C16.2627 18.2314 15.791 18.2725 15.3604 18.0059L13.5146 16.8677C13.1968 17.0112 12.8481 17.1548 12.4893 17.2778L11.9971 19.3901C11.8843 19.8926 11.5151 20.1899 11.0024 20.1899H9.19775ZM10.1001 13.5352C11.9868 13.5352 13.5352 11.9766 13.5352 10.0898C13.5352 8.21338 11.9868 6.65479 10.1001 6.65479C8.21338 6.65479 6.65479 8.21338 6.65479 10.0898C6.65479 11.9766 8.21338 13.5352 10.1001 13.5352Z" fill="black"/>
</svg>
