<svg width="80" height="80" viewBox="0 0 80 80" fill="none" xmlns="http://www.w3.org/2000/svg">
<rect width="80" height="80" rx="40" fill="#F9F9FB"/>
<path d="M29.2627 54.1641C26.8896 54.1641 25.4395 52.4795 25.4395 50.3408C25.4395 49.6963 25.6152 49.0225 25.9814 48.3779L36.7188 29.6572C37.4512 28.3975 38.7109 27.7383 40 27.7383C41.2891 27.7383 42.5488 28.3828 43.2812 29.6572L54.0186 48.3779C54.3701 49.0078 54.5605 49.6963 54.5605 50.3408C54.5605 52.4795 53.1104 54.1641 50.7373 54.1641H29.2627ZM40.0146 44.8184C40.7324 44.8184 41.1572 44.4082 41.1719 43.6318L41.377 36.2783C41.3916 35.5166 40.791 34.9453 40 34.9453C39.1797 34.9453 38.623 35.502 38.6377 36.2783L38.8281 43.6318C38.8428 44.3936 39.2676 44.8184 40.0146 44.8184ZM40.0146 49.5059C40.8643 49.5059 41.6113 48.8467 41.6113 47.9824C41.6113 47.1182 40.8789 46.459 40.0146 46.459C39.1357 46.459 38.418 47.1328 38.418 47.9824C38.418 48.832 39.1504 49.5059 40.0146 49.5059Z" fill="#323C46"/>
</svg>
