<svg width="20" height="13" viewBox="0 0 20 13" fill="none" xmlns="http://www.w3.org/2000/svg">
<path d="M10 12.9448C4.20654 12.9448 0.0683594 8.19873 0.0683594 6.71924C0.0683594 5.23242 4.20654 0.493652 10 0.493652C15.8594 0.493652 19.9243 5.23242 19.9243 6.71924C19.9243 8.19873 15.8667 12.9448 10 12.9448ZM10 10.7988C12.2632 10.7988 14.0942 8.9458 14.0942 6.71924C14.0942 4.43408 12.2632 2.63965 10 2.63965C7.71484 2.63965 5.89844 4.43408 5.89844 6.71924C5.89844 8.9458 7.71484 10.7988 10 10.7988ZM10 8.19141C9.17969 8.19141 8.50586 7.5249 8.50586 6.71924C8.50586 5.90625 9.17969 5.23975 10 5.23975C10.813 5.23975 11.4868 5.90625 11.4868 6.71924C11.4868 7.5249 10.813 8.19141 10 8.19141Z" fill="#A7A7B9"/>
</svg>
