<svg width="24" height="24" viewBox="0 0 24 24" fill="none" xmlns="http://www.w3.org/2000/svg">
<path d="M2.97656 11.1187C2.04639 11.1187 1.57764 10.6499 1.57764 9.68311V6.40918C1.57764 5.44238 2.04639 4.98096 2.97656 4.98096H6.31641C7.24658 4.98096 7.71533 5.44238 7.71533 6.40918V9.68311C7.71533 10.6499 7.24658 11.1187 6.31641 11.1187H2.97656ZM10.3301 11.1187C9.39258 11.1187 8.92383 10.6499 8.92383 9.68311V6.40918C8.92383 5.44238 9.39258 4.98096 10.3301 4.98096H13.6626C14.5928 4.98096 15.0615 5.44238 15.0615 6.40918V9.68311C15.0615 10.6499 14.5928 11.1187 13.6626 11.1187H10.3301ZM17.6763 11.1187C16.7461 11.1187 16.2773 10.6499 16.2773 9.68311V6.40918C16.2773 5.44238 16.7461 4.98096 17.6763 4.98096H21.0161C21.9463 4.98096 22.415 5.44238 22.415 6.40918V9.68311C22.415 10.6499 21.9463 11.1187 21.0161 11.1187H17.6763ZM2.97656 18.4648C2.04639 18.4648 1.57764 18.0034 1.57764 17.0366V13.7554C1.57764 12.7959 2.04639 12.3271 2.97656 12.3271H6.31641C7.24658 12.3271 7.71533 12.7959 7.71533 13.7554V17.0366C7.71533 18.0034 7.24658 18.4648 6.31641 18.4648H2.97656ZM10.3301 18.4648C9.39258 18.4648 8.92383 18.0034 8.92383 17.0366V13.7554C8.92383 12.7959 9.39258 12.3271 10.3301 12.3271H13.6626C14.5928 12.3271 15.0615 12.7959 15.0615 13.7554V17.0366C15.0615 18.0034 14.5928 18.4648 13.6626 18.4648H10.3301ZM17.6763 18.4648C16.7461 18.4648 16.2773 18.0034 16.2773 17.0366V13.7554C16.2773 12.7959 16.7461 12.3271 17.6763 12.3271H21.0161C21.9463 12.3271 22.415 12.7959 22.415 13.7554V17.0366C22.415 18.0034 21.9463 18.4648 21.0161 18.4648H17.6763Z" fill="#000"/>
</svg>
